
开始渲染 2 个剪辑...
输出目录: clips/欺我年迈抢祖宅，和贫道仙法说吧

渲染剪辑: 欺我年迈抢祖宅，和贫道仙法说吧_第1集0秒_第2集38秒.mp4
  起始: 第1集0秒
  结束: 第2集38秒
  时长: 189.100秒
  跨集: 是
  片段数: 2
    1. 第1集 0.000-151.000秒
    2. 第2集 0.000-38.100秒
  ffmpeg version 8.0 Copyright (c) 2000-2025 the FFmpeg developers  built with Apple clang version 17.0.0 (clang-1700.0.13.3)  configuration: --prefix=/opt/homebrew/Cellar/ffmpeg/8.0_1 --enable-shared --enable-pthreads --enable  libavutil      60.  8.100 / 60.  8.100  libavcodec     62. 11.100 / 62. 11.100  libavformat    62.  3.100 / 62.  3.100  libavdevice    62.  1.100 / 62.  1.100  libavfilter    11.  4.100 / 11.  4.100  libswscale      9.  1.100 /  9.  1.100  libswresample   6.  1.100 /  6.  1.100  Input #0, mov,mp4,m4a,3gp,3g2,mj2, from '晓红姐-3.4剧目/欺我年迈抢祖宅，和贫道仙法说吧/1.mp4':  Metadata:  major_brand     : isom  minor_version   : 512  compatible_brands: isomiso2avc1mp41  comment         : vid:v03ebeg10000d6g1p7nog65vchdtocc0  encoder         : Lavf58.76.100  Duration: 00:02:31.26, start: 0.000000, bitrate: 2202 kb/s  Stream #0:0[0x1](und): Video: h264 (High) (avc1 / 0x31637661), yuv420p(tv, bt709, progressive), 1080  Metadata:  handler_name    : VideoHandler  vendor_id       : [0][0][0][0]  Stream #0:1[0x2](und): Audio: aac (LC) (mp4a / 0x6134706D), 44100 Hz, stereo, fltp, 128 kb/s (defaul  Metadata:  handler_name    : SoundHandler  vendor_id       : [0][0][0][0]  Stream mapping:  Stream #0:0 -> #0:0 (copy)  Stream #0:1 -> #0:1 (copy)  Output #0, mp4, to 'clips/欺我年迈抢祖宅，和贫道仙法说吧/temp/segment_0.mp4':  Metadata:  major_brand     : isom  minor_version   : 512  compatible_brands: isomiso2avc1mp41  comment         : vid:v03ebeg10000d6g1p7nog65vchdtocc0  encoder         : Lavf62.3.100  Stream #0:0(und): Video: h264 (High) (avc1 / 0x31637661), yuv420p(tv, bt709, progressive), 1080x1920  Metadata:  handler_name    : VideoHandler  vendor_id       : [0][0][0][0]  Stream #0:1(und): Audio: aac (LC) (mp4a / 0x6134706D), 44100 Hz, stereo, fltp, 128 kb/s (default)  Metadata:  handler_name    : SoundHandler  vendor_id       : [0][0][0][0]  Press [q] to stop, [?] for help  [mp4 @ 0x8aa80f700] Starting second pass: moving the moov atom to the beginning of the file  [out#0/mp4 @ 0x8ab4043c0] video:38161KiB audio:2361KiB subtitle:0KiB other streams:0KiB global heade  frame= 3777 fps=0.0 q=-1.0 Lsize=   40647KiB time=00:02:31.08 bitrate=2204.0kbits/s speed=1.24e+03x   ffmpeg version 8.0 Copyright (c) 2000-2025 the FFmpeg developers  built with Apple clang version 17.0.0 (clang-1700.0.13.3)  configuration: --prefix=/opt/homebrew/Cellar/ffmpeg/8.0_1 --enable-shared --enable-pthreads --enable  libavutil      60.  8.100 / 60.  8.100  libavcodec     62. 11.100 / 62. 11.100  libavformat    62.  3.100 / 62.  3.100  libavdevice    62.  1.100 / 62.  1.100  libavfilter    11.  4.100 / 11.  4.100  libswscale      9.  1.100 /  9.  1.100  libswresample   6.  1.100 /  6.  1.100  Input #0, mov,mp4,m4a,3gp,3g2,mj2, from '晓红姐-3.4剧目/欺我年迈抢祖宅，和贫道仙法说吧/2.mp4':  Metadata:  major_brand     : isom  minor_version   : 512  compatible_brands: isomiso2avc1mp41  comment         : vid:v0debeg10000d6g1p7nog65osdh074og  encoder         : Lavf58.76.100  Duration: 00:03:14.42, start: 0.000000, bitrate: 1847 kb/s  Stream #0:0[0x1](und): Video: h264 (High) (avc1 / 0x31637661), yuv420p(tv, bt709, progressive), 1080  Metadata:  handler_name    : VideoHandler  vendor_id       : [0][0][0][0]  Stream #0:1[0x2](und): Audio: aac (LC) (mp4a / 0x6134706D), 44100 Hz, stereo, fltp, 128 kb/s (defaul  Metadata:  handler_name    : SoundHandler  vendor_id       : [0][0][0][0]  Stream mapping:  Stream #0:0 -> #0:0 (copy)  Stream #0:1 -> #0:1 (copy)  Output #0, mp4, to 'clips/欺我年迈抢祖宅，和贫道仙法说吧/temp/segment_1.mp4':  Metadata:  major_brand     : isom  minor_version   : 512  compatible_brands: isomiso2avc1mp41  comment         : vid:v0debeg10000d6g1p7nog65osdh074og  encoder         : Lavf62.3.100  Stream #0:0(und): Video: h264 (High) (avc1 / 0x31637661), yuv420p(tv, bt709, progressive), 1080x1920  Metadata:  handler_name    : VideoHandler  vendor_id       : [0][0][0][0]  Stream #0:1(und): Audio: aac (LC) (mp4a / 0x6134706D), 44100 Hz, stereo, fltp, 128 kb/s (default)  Metadata:  handler_name    : SoundHandler  vendor_id       : [0][0][0][0]  Press [q] to stop, [?] for help  [mp4 @ 0xac1403700] Starting second pass: moving the moov atom to the beginning of the file  [out#0/mp4 @ 0xac1008a80] video:9160KiB audio:597KiB subtitle:0KiB other streams:0KiB global headers  frame=  955 fps=0.0 q=-1.0 Lsize=    9790KiB time=00:00:38.20 bitrate=2099.4kbits/s speed=1.13e+03x 进度: [1/2] 50.0%进度: [1/2] 100.0%  ✅ 输出: clips/欺我年迈抢祖宅，和贫道仙法说吧/欺我年迈抢祖宅，和贫道仙法说吧_第1集0秒_第2集38秒.mp4
进度: [1/2] 50.0%
渲染剪辑: 欺我年迈抢祖宅，和贫道仙法说吧_第1集0秒_第3集2分28秒.mp4
  起始: 第1集0秒
  结束: 第3集2分28秒
  时长: 493.100秒
  跨集: 是
  片段数: 3
    1. 第1集 0.000-151.000秒
    2. 第2集 0.000-194.000秒
    3. 第3集 0.000-148.100秒
  ffmpeg version 8.0 Copyright (c) 2000-2025 the FFmpeg developers  built with Apple clang version 17.0.0 (clang-1700.0.13.3)  configuration: --prefix=/opt/homebrew/Cellar/ffmpeg/8.0_1 --enable-shared --enable-pthreads --enable  libavutil      60.  8.100 / 60.  8.100  libavcodec     62. 11.100 / 62. 11.100  libavformat    62.  3.100 / 62.  3.100  libavdevice    62.  1.100 / 62.  1.100  libavfilter    11.  4.100 / 11.  4.100  libswscale      9.  1.100 /  9.  1.100  libswresample   6.  1.100 /  6.  1.100  Input #0, mov,mp4,m4a,3gp,3g2,mj2, from '晓红姐-3.4剧目/欺我年迈抢祖宅，和贫道仙法说吧/1.mp4':  Metadata:  major_brand     : isom  minor_version   : 512  compatible_brands: isomiso2avc1mp41  comment         : vid:v03ebeg10000d6g1p7nog65vchdtocc0  encoder         : Lavf58.76.100  Duration: 00:02:31.26, start: 0.000000, bitrate: 2202 kb/s  Stream #0:0[0x1](und): Video: h264 (High) (avc1 / 0x31637661), yuv420p(tv, bt709, progressive), 1080  Metadata:  handler_name    : VideoHandler  vendor_id       : [0][0][0][0]  Stream #0:1[0x2](und): Audio: aac (LC) (mp4a / 0x6134706D), 44100 Hz, stereo, fltp, 128 kb/s (defaul  Metadata:  handler_name    : SoundHandler  vendor_id       : [0][0][0][0]  Stream mapping:  Stream #0:0 -> #0:0 (copy)  Stream #0:1 -> #0:1 (copy)  Output #0, mp4, to 'clips/欺我年迈抢祖宅，和贫道仙法说吧/temp/segment_0.mp4':  Metadata:  major_brand     : isom  minor_version   : 512  compatible_brands: isomiso2avc1mp41  comment         : vid:v03ebeg10000d6g1p7nog65vchdtocc0  encoder         : Lavf62.3.100  Stream #0:0(und): Video: h264 (High) (avc1 / 0x31637661), yuv420p(tv, bt709, progressive), 1080x1920  Metadata:  handler_name    : VideoHandler  vendor_id       : [0][0][0][0]  Stream #0:1(und): Audio: aac (LC) (mp4a / 0x6134706D), 44100 Hz, stereo, fltp, 128 kb/s (default)  Metadata:  handler_name    : SoundHandler  vendor_id       : [0][0][0][0]  Press [q] to stop, [?] for help  [mp4 @ 0x93ec3b700] Starting second pass: moving the moov atom to the beginning of the file  [out#0/mp4 @ 0x93ec3c3c0] video:38161KiB audio:2361KiB subtitle:0KiB other streams:0KiB global heade  frame= 3777 fps=0.0 q=-1.0 Lsize=   40647KiB time=00:02:31.06 bitrate=2204.2kbits/s speed=1.02e+03x   ffmpeg version 8.0 Copyright (c) 2000-2025 the FFmpeg developers  built with Apple clang version 17.0.0 (clang-1700.0.13.3)  configuration: --prefix=/opt/homebrew/Cellar/ffmpeg/8.0_1 --enable-shared --enable-pthreads --enable  libavutil      60.  8.100 / 60.  8.100  libavcodec     62. 11.100 / 62. 11.100  libavformat    62.  3.100 / 62.  3.100  libavdevice    62.  1.100 / 62.  1.100  libavfilter    11.  4.100 / 11.  4.100  libswscale      9.  1.100 /  9.  1.100  libswresample   6.  1.100 /  6.  1.100  Input #0, mov,mp4,m4a,3gp,3g2,mj2, from '晓红姐-3.4剧目/欺我年迈抢祖宅，和贫道仙法说吧/2.mp4':  Metadata:  major_brand     : isom  minor_version   : 512  compatible_brands: isomiso2avc1mp41  comment         : vid:v0debeg10000d6g1p7nog65osdh074og  encoder         : Lavf58.76.100  Duration: 00:03:14.42, start: 0.000000, bitrate: 1847 kb/s  Stream #0:0[0x1](und): Video: h264 (High) (avc1 / 0x31637661), yuv420p(tv, bt709, progressive), 1080  Metadata:  handler_name    : VideoHandler  vendor_id       : [0][0][0][0]  Stream #0:1[0x2](und): Audio: aac (LC) (mp4a / 0x6134706D), 44100 Hz, stereo, fltp, 128 kb/s (defaul  Metadata:  handler_name    : SoundHandler  vendor_id       : [0][0][0][0]  Stream mapping:  Stream #0:0 -> #0:0 (copy)  Stream #0:1 -> #0:1 (copy)  Output #0, mp4, to 'clips/欺我年迈抢祖宅，和贫道仙法说吧/temp/segment_1.mp4':  Metadata:  major_brand     : isom  minor_version   : 512  compatible_brands: isomiso2avc1mp41  comment         : vid:v0debeg10000d6g1p7nog65osdh074og  encoder         : Lavf62.3.100  Stream #0:0(und): Video: h264 (High) (avc1 / 0x31637661), yuv420p(tv, bt709, progressive), 1080x1920  Metadata:  handler_name    : VideoHandler  vendor_id       : [0][0][0][0]  Stream #0:1(und): Audio: aac (LC) (mp4a / 0x6134706D), 44100 Hz, stereo, fltp, 128 kb/s (default)  Metadata:  handler_name    : SoundHandler  vendor_id       : [0][0][0][0]  Press [q] to stop, [?] for help  [mp4 @ 0xb0103f700] Starting second pass: moving the moov atom to the beginning of the file  [out#0/mp4 @ 0xb01008a80] video:40586KiB audio:3032KiB subtitle:0KiB other streams:0KiB global heade  frame= 4852 fps=0.0 q=-1.0 Lsize=   43778KiB time=00:03:14.04 bitrate=1848.1kbits/s speed=1.11e+03x   ffmpeg version 8.0 Copyright (c) 2000-2025 the FFmpeg developers  built with Apple clang version 17.0.0 (clang-1700.0.13.3)  configuration: --prefix=/opt/homebrew/Cellar/ffmpeg/8.0_1 --enable-shared --enable-pthreads --enable  libavutil      60.  8.100 / 60.  8.100  libavcodec     62. 11.100 / 62. 11.100  libavformat    62.  3.100 / 62.  3.100  libavdevice    62.  1.100 / 62.  1.100  libavfilter    11.  4.100 / 11.  4.100  libswscale      9.  1.100 /  9.  1.100  libswresample   6.  1.100 /  6.  1.100  Input #0, mov,mp4,m4a,3gp,3g2,mj2, from '晓红姐-3.4剧目/欺我年迈抢祖宅，和贫道仙法说吧/3.mp4':  Metadata:  major_brand     : isom  minor_version   : 512  compatible_brands: isomiso2avc1mp41  comment         : vid:v03ebeg10000d6g1p7nog65nv1tlp5eg  encoder         : Lavf58.76.100  Duration: 00:02:30.08, start: 0.000000, bitrate: 1585 kb/s  Stream #0:0[0x1](und): Video: h264 (High) (avc1 / 0x31637661), yuv420p(tv, bt709, progressive), 1080  Metadata:  handler_name    : VideoHandler  vendor_id       : [0][0][0][0]  Stream #0:1[0x2](und): Audio: aac (LC) (mp4a / 0x6134706D), 44100 Hz, stereo, fltp, 128 kb/s (defaul  Metadata:  handler_name    : SoundHandler  vendor_id       : [0][0][0][0]  Stream mapping:  Stream #0:0 -> #0:0 (copy)  Stream #0:1 -> #0:1 (copy)  Output #0, mp4, to 'clips/欺我年迈抢祖宅，和贫道仙法说吧/temp/segment_2.mp4':  Metadata:  major_brand     : isom  minor_version   : 512  compatible_brands: isomiso2avc1mp41  comment         : vid:v03ebeg10000d6g1p7nog65nv1tlp5eg  encoder         : Lavf62.3.100  Stream #0:0(und): Video: h264 (High) (avc1 / 0x31637661), yuv420p(tv, bt709, progressive), 1080x1920  Metadata:  handler_name    : VideoHandler  vendor_id       : [0][0][0][0]  Stream #0:1(und): Audio: aac (LC) (mp4a / 0x6134706D), 44100 Hz, stereo, fltp, 128 kb/s (default)  Metadata:  handler_name    : SoundHandler  vendor_id       : [0][0][0][0]  Press [q] to stop, [?] for help  [mp4 @ 0x801427700] Starting second pass: moving the moov atom to the beginning of the file  [out#0/mp4 @ 0x801008a80] video:25875KiB audio:2316KiB subtitle:0KiB other streams:0KiB global heade  frame= 3705 fps=0.0 q=-1.0 Lsize=   28313KiB time=00:02:28.16 bitrate=1565.5kbits/s speed=2.23e+03x 进度: [2/2] 50.0%进度: [2/2] 100.0%  ✅ 输出: clips/欺我年迈抢祖宅，和贫道仙法说吧/欺我年迈抢祖宅，和贫道仙法说吧_第1集0秒_第3集2分28秒.mp4
进度: [2/2] 100.0%
✅ 渲染完成: 2/2个剪辑


完成！输出文件:
  - clips/欺我年迈抢祖宅，和贫道仙法说吧/欺我年迈抢祖宅，和贫道仙法说吧_第1集0秒_第2集38秒.mp4
  - clips/欺我年迈抢祖宅，和贫道仙法说吧/欺我年迈抢祖宅，和贫道仙法说吧_第1集0秒_第3集2分28秒.mp4
